<svg width="88" height="88" viewBox="0 0 88 88" fill="none" xmlns="http://www.w3.org/2000/svg">
<rect width="88" height="88" rx="44" fill="#F1A33B"/>
<mask id="path-2-outside-1_1_101" maskUnits="userSpaceOnUse" x="31" y="33" width="26" height="25" fill="black">
<rect fill="white" x="31" y="33" width="26" height="25"/>
<path d="M32.1172 47.1875H55.9062V43.3906H32.1172V47.1875ZM42.1016 56.8906H45.8984V33.6875H42.1016V56.8906Z"/>
</mask>
<path d="M32.1172 47.1875H55.9062V43.3906H32.1172V47.1875ZM42.1016 56.8906H45.8984V33.6875H42.1016V56.8906Z" fill="white"/>
<path d="M32.1172 47.1875H31.7172V47.5875H32.1172V47.1875ZM55.9062 47.1875V47.5875H56.3062V47.1875H55.9062ZM55.9062 43.3906H56.3062V42.9906H55.9062V43.3906ZM32.1172 43.3906V42.9906H31.7172V43.3906H32.1172ZM42.1016 56.8906H41.7016V57.2906H42.1016V56.8906ZM45.8984 56.8906V57.2906H46.2984V56.8906H45.8984ZM45.8984 33.6875H46.2984V33.2875H45.8984V33.6875ZM42.1016 33.6875V33.2875H41.7016V33.6875H42.1016ZM32.1172 47.5875H55.9062V46.7875H32.1172V47.5875ZM56.3062 47.1875V43.3906H55.5063V47.1875H56.3062ZM55.9062 42.9906H32.1172V43.7906H55.9062V42.9906ZM31.7172 43.3906V47.1875H32.5172V43.3906H31.7172ZM42.1016 57.2906H45.8984V56.4906H42.1016V57.2906ZM46.2984 56.8906V33.6875H45.4984V56.8906H46.2984ZM45.8984 33.2875H42.1016V34.0875H45.8984V33.2875ZM41.7016 33.6875V56.8906H42.5016V33.6875H41.7016Z" fill="white" mask="url(#path-2-outside-1_1_101)"/>
</svg>
