<svg width="88" height="88" viewBox="0 0 88 88" fill="none" xmlns="http://www.w3.org/2000/svg">
<rect width="88" height="88" rx="44" fill="#F1A33B"/>
<mask id="path-2-outside-1_1_99" maskUnits="userSpaceOnUse" x="31" y="43" width="25" height="6" fill="black">
<rect fill="white" x="31" y="43" width="25" height="6"/>
<path d="M32.3984 47.6289H55.5801V44.1484H32.3984V47.6289Z"/>
</mask>
<path d="M32.3984 47.6289H55.5801V44.1484H32.3984V47.6289Z" fill="white"/>
<path d="M32.3984 47.6289H31.9984V48.0289H32.3984V47.6289ZM55.5801 47.6289V48.0289H55.9801V47.6289H55.5801ZM55.5801 44.1484H55.9801V43.7484H55.5801V44.1484ZM32.3984 44.1484V43.7484H31.9984V44.1484H32.3984ZM32.3984 48.0289H55.5801V47.2289H32.3984V48.0289ZM55.9801 47.6289V44.1484H55.1801V47.6289H55.9801ZM55.5801 43.7484H32.3984V44.5484H55.5801V43.7484ZM31.9984 44.1484V47.6289H32.7984V44.1484H31.9984Z" fill="white" mask="url(#path-2-outside-1_1_99)"/>
</svg>
