<svg width="88" height="88" viewBox="0 0 88 88" fill="none" xmlns="http://www.w3.org/2000/svg">
<rect width="88" height="88" rx="44" fill="#A5A5A5"/>
<path d="M21.8535 57H25.7715L32.5449 37.0117H33.5908V33.0439H30.5693L21.8535 57ZM26.0869 50.5254H39.0693L37.9902 47.5371H27.166L26.0869 50.5254ZM39.3848 57H43.3027L34.6035 33.0439H32.6279V37.0117L39.3848 57ZM55.3555 57.3984C57.1263 57.3984 58.7201 57.0664 60.1367 56.4023C61.5534 55.7383 62.7155 54.8086 63.623 53.6133C64.5417 52.4069 65.1227 51.0068 65.3662 49.4131L65.3994 49.2471H61.6973L61.6475 49.4131C61.3597 50.4202 60.9225 51.2725 60.3359 51.9697C59.7493 52.667 59.0355 53.1982 58.1943 53.5635C57.3643 53.9176 56.418 54.0947 55.3555 54.0947C53.8835 54.0947 52.5996 53.724 51.5039 52.9824C50.4082 52.2409 49.5615 51.1895 48.9639 49.8281C48.3662 48.4557 48.0674 46.8509 48.0674 45.0137V44.9971C48.0674 43.1488 48.3662 41.5495 48.9639 40.1992C49.5615 38.849 50.4027 37.8031 51.4873 37.0615C52.583 36.32 53.8724 35.9492 55.3555 35.9492C56.4401 35.9492 57.3975 36.1318 58.2275 36.4971C59.0687 36.8512 59.7715 37.3659 60.3359 38.041C60.9115 38.7161 61.3265 39.5241 61.5811 40.4648L61.6807 40.7969H65.3828L65.3662 40.6309C65.1227 39.0482 64.5417 37.6592 63.623 36.4639C62.7044 35.2686 61.5368 34.3333 60.1201 33.6582C58.7035 32.9831 57.1152 32.6455 55.3555 32.6455C53.0866 32.6455 51.1221 33.1491 49.4619 34.1562C47.8018 35.1523 46.5179 36.5745 45.6104 38.4229C44.7028 40.2712 44.249 42.4626 44.249 44.9971V45.0137C44.249 47.5482 44.7028 49.7451 45.6104 51.6045C46.5179 53.4528 47.8018 54.8805 49.4619 55.8877C51.1331 56.8949 53.0977 57.3984 55.3555 57.3984Z" fill="black"/>
</svg>
