<svg width="88" height="88" viewBox="0 0 88 88" fill="none" xmlns="http://www.w3.org/2000/svg">
<rect width="88" height="88" rx="44" fill="#F1A33B"/>
<mask id="path-2-outside-1_1_94" maskUnits="userSpaceOnUse" x="31" y="31" width="26" height="24" fill="black">
<rect fill="white" x="31" y="31" width="26" height="24"/>
<path d="M32.0889 44.6797H55.7178V41.041H32.0889V44.6797ZM43.8809 36.7061C44.5397 36.7061 45.0863 36.4889 45.5205 36.0547C45.9697 35.6055 46.1943 35.0589 46.1943 34.415C46.1943 33.7562 45.9697 33.2096 45.5205 32.7754C45.0863 32.3262 44.5397 32.1016 43.8809 32.1016C43.237 32.1016 42.6904 32.3262 42.2412 32.7754C41.807 33.2096 41.5898 33.7562 41.5898 34.415C41.5898 35.0589 41.807 35.6055 42.2412 36.0547C42.6904 36.4889 43.237 36.7061 43.8809 36.7061ZM43.8809 53.6191C44.5397 53.6191 45.0863 53.3945 45.5205 52.9453C45.9697 52.4961 46.1943 51.9495 46.1943 51.3057C46.1943 50.6618 45.9697 50.1227 45.5205 49.6885C45.0863 49.2393 44.5397 49.0146 43.8809 49.0146C43.237 49.0146 42.6904 49.2393 42.2412 49.6885C41.807 50.1227 41.5898 50.6618 41.5898 51.3057C41.5898 51.9495 41.807 52.4961 42.2412 52.9453C42.6904 53.3945 43.237 53.6191 43.8809 53.6191Z"/>
</mask>
<path d="M32.0889 44.6797H55.7178V41.041H32.0889V44.6797ZM43.8809 36.7061C44.5397 36.7061 45.0863 36.4889 45.5205 36.0547C45.9697 35.6055 46.1943 35.0589 46.1943 34.415C46.1943 33.7562 45.9697 33.2096 45.5205 32.7754C45.0863 32.3262 44.5397 32.1016 43.8809 32.1016C43.237 32.1016 42.6904 32.3262 42.2412 32.7754C41.807 33.2096 41.5898 33.7562 41.5898 34.415C41.5898 35.0589 41.807 35.6055 42.2412 36.0547C42.6904 36.4889 43.237 36.7061 43.8809 36.7061ZM43.8809 53.6191C44.5397 53.6191 45.0863 53.3945 45.5205 52.9453C45.9697 52.4961 46.1943 51.9495 46.1943 51.3057C46.1943 50.6618 45.9697 50.1227 45.5205 49.6885C45.0863 49.2393 44.5397 49.0146 43.8809 49.0146C43.237 49.0146 42.6904 49.2393 42.2412 49.6885C41.807 50.1227 41.5898 50.6618 41.5898 51.3057C41.5898 51.9495 41.807 52.4961 42.2412 52.9453C42.6904 53.3945 43.237 53.6191 43.8809 53.6191Z" fill="white"/>
<path d="M32.0889 44.6797H31.6889V45.0797H32.0889V44.6797ZM55.7178 44.6797V45.0797H56.1178V44.6797H55.7178ZM55.7178 41.041H56.1178V40.641H55.7178V41.041ZM32.0889 41.041V40.641H31.6889V41.041H32.0889ZM45.5205 32.7754L45.2327 33.0536L45.2425 33.063L45.5205 32.7754ZM42.2412 36.0547L41.9535 36.3329L41.9632 36.3423L42.2412 36.0547ZM45.5205 52.9453L45.2376 52.6624L45.2329 52.6673L45.5205 52.9453ZM45.5205 49.6885L45.2327 49.9666L45.2425 49.9761L45.5205 49.6885ZM42.2412 49.6885L42.5241 49.9713L42.2412 49.6885ZM42.2412 52.9453L41.9536 53.2234L41.9584 53.2282L42.2412 52.9453ZM32.0889 45.0797H55.7178V44.2797H32.0889V45.0797ZM56.1178 44.6797V41.041H55.3178V44.6797H56.1178ZM55.7178 40.641H32.0889V41.441H55.7178V40.641ZM31.6889 41.041V44.6797H32.4889V41.041H31.6889ZM43.8809 37.1061C44.6372 37.1061 45.2883 36.8526 45.8034 36.3375L45.2377 35.7718C44.8843 36.1252 44.4422 36.3061 43.8809 36.3061V37.1061ZM45.8034 36.3375C46.3287 35.8122 46.5943 35.1634 46.5943 34.415H45.7943C45.7943 34.9544 45.6107 35.3988 45.2377 35.7718L45.8034 36.3375ZM46.5943 34.415C46.5943 33.6544 46.3303 33.0019 45.7985 32.4878L45.2425 33.063C45.6091 33.4174 45.7943 33.858 45.7943 34.415H46.5943ZM45.8081 32.4974C45.294 31.9656 44.6415 31.7016 43.8809 31.7016V32.5016C44.4379 32.5016 44.8785 32.6868 45.2329 33.0534L45.8081 32.4974ZM43.8809 31.7016C43.1325 31.7016 42.4837 31.9672 41.9584 32.4925L42.5241 33.0582C42.8971 32.6852 43.3415 32.5016 43.8809 32.5016V31.7016ZM41.9584 32.4925C41.4433 33.0076 41.1898 33.6586 41.1898 34.415H41.9898C41.9898 33.8537 42.1707 33.4116 42.5241 33.0582L41.9584 32.4925ZM41.1898 34.415C41.1898 35.1591 41.4449 35.8064 41.9536 36.3327L42.5288 35.7767C42.1691 35.4045 41.9898 34.9587 41.9898 34.415H41.1898ZM41.9632 36.3423C42.4895 36.851 43.1368 37.1061 43.8809 37.1061V36.3061C43.3372 36.3061 42.8914 36.1268 42.5192 35.7671L41.9632 36.3423ZM43.8809 54.0191C44.6415 54.0191 45.294 53.7551 45.8081 53.2233L45.2329 52.6673C44.8785 53.0339 44.4379 53.2191 43.8809 53.2191V54.0191ZM45.8034 53.2282C46.3287 52.7028 46.5943 52.054 46.5943 51.3057H45.7943C45.7943 51.8451 45.6107 52.2894 45.2377 52.6625L45.8034 53.2282ZM46.5943 51.3057C46.5943 50.5571 46.3283 49.913 45.7985 49.4009L45.2425 49.9761C45.6111 50.3324 45.7943 50.7665 45.7943 51.3057H46.5943ZM45.8081 49.4105C45.294 48.8787 44.6415 48.6146 43.8809 48.6146V49.4146C44.4379 49.4146 44.8785 49.5999 45.2329 49.9665L45.8081 49.4105ZM43.8809 48.6146C43.1325 48.6146 42.4837 48.8803 41.9584 49.4056L42.5241 49.9713C42.8971 49.5982 43.3415 49.4146 43.8809 49.4146V48.6146ZM41.9584 49.4056C41.4452 49.9188 41.1898 50.5614 41.1898 51.3057H41.9898C41.9898 50.7621 42.1688 50.3266 42.5241 49.9713L41.9584 49.4056ZM41.1898 51.3057C41.1898 52.0498 41.4449 52.697 41.9536 53.2233L42.5288 52.6673C42.1691 52.2952 41.9898 51.8493 41.9898 51.3057H41.1898ZM41.9584 53.2282C42.4837 53.7535 43.1325 54.0191 43.8809 54.0191V53.2191C43.3415 53.2191 42.8971 53.0355 42.5241 52.6625L41.9584 53.2282Z" fill="white" mask="url(#path-2-outside-1_1_94)"/>
</svg>
